<svg xmlns="http://www.w3.org/2000/svg" xmlns:xlink="http://www.w3.org/1999/xlink" viewBox="0 0 1000 1000">
<g transform="scale(2)">
<path fill="#000000" d="
M227.054291,297.554382 
	C222.457306,302.147522 217.547287,306.477753 213.383713,311.434937 
	C210.983383,314.292755 208.865005,318.011841 208.272675,321.614990 
	C207.419312,326.805939 207.942566,332.248199 208.119186,337.575226 
	C208.254379,341.652435 209.901474,345.022369 214.321594,345.820435 
	C217.865555,346.460327 221.506851,346.910767 225.099304,346.875183 
	C246.689896,346.661346 268.278687,346.270813 289.868500,345.968140 
	C295.200317,345.893402 300.533905,345.955292 305.866119,345.900238 
	C312.725189,345.829468 316.863586,341.641235 316.919006,334.734802 
	C316.959137,329.735687 316.974365,324.736053 316.953888,319.736877 
	C316.919983,311.468384 313.569763,308.086090 305.325165,308.053497 
	C296.079590,308.016968 286.833740,308.045105 277.124756,308.045105 
	C277.764526,306.609772 277.995911,305.629791 278.556061,304.903290 
	C286.642517,294.415009 294.712402,283.912964 302.907715,273.509888 
	C314.335999,259.002869 318.627563,243.081757 313.434631,224.922699 
	C307.952484,205.752411 285.535034,192.783310 268.151794,192.235764 
	C258.322571,191.926163 248.300171,192.636780 238.617203,194.330750 
	C230.082764,195.823776 221.817200,199.097855 213.621414,202.100052 
	C211.723038,202.795486 209.493683,205.475281 209.299194,207.429337 
	C208.499130,215.467484 208.211700,223.576569 208.162735,231.662155 
	C208.132935,236.585266 213.127731,240.629791 217.634323,239.836868 
	C219.872925,239.442993 222.032959,238.574524 224.276123,238.239487 
	C234.290131,236.743820 244.283386,234.867706 254.358185,234.096497 
	C262.518219,233.471863 267.194550,240.089630 264.586273,247.855316 
	C263.205261,251.967087 261.177826,255.965637 258.844391,259.635162 
	C250.055038,273.457245 239.141449,285.547607 227.054291,297.554382"/>
<path fill="#000000" d="
M84.748260,346.951965 
	C87.745644,346.957581 90.743019,346.964813 93.740402,346.968475 
	C112.872040,346.992035 132.057556,347.627502 150.841888,342.925873 
	C162.852371,339.919739 173.973755,334.891815 182.873383,326.132172 
	C195.528915,313.675629 199.459229,297.538086 199.758728,280.574585 
	C199.973465,268.412537 199.366623,256.121155 197.769119,244.067352 
	C194.973495,222.973175 183.555588,208.191132 163.052261,201.010269 
	C150.042664,196.453918 136.523895,195.345917 122.916771,195.108734 
	C109.931755,194.882431 96.939400,195.076294 83.950272,195.087967 
	C76.303131,195.094849 73.089256,198.351761 73.084976,206.161514 
	C73.061264,249.458374 73.043900,292.755219 73.034683,336.052094 
	C73.033089,343.554901 76.266762,346.797363 84.748260,346.951965"/>
<path fill="#000000" d="
M343.522156,344.921112 
	C365.180511,344.922852 386.838867,344.943604 408.497192,344.915039 
	C415.117157,344.906311 417.754028,342.306854 417.900604,335.700043 
	C417.989227,331.703613 417.962219,327.702698 417.898529,323.705231 
	C417.772278,315.779877 414.000275,311.979584 406.078979,312.080597 
	C385.653442,312.341034 365.229370,312.719818 344.804413,313.030823 
	C341.306580,313.084076 337.806458,312.987976 334.308777,313.045593 
	C329.088745,313.131561 325.271240,316.804657 325.059418,321.921326 
	C324.983704,323.750885 325.107117,325.588531 325.034943,327.418365 
	C324.408783,343.292694 326.383453,345.664062 343.522156,344.921112"/>
</g>
</svg>